<svg width="19" height="22" viewBox="0 0 19 22" fill="none" xmlns="http://www.w3.org/2000/svg">
<path d="M16.9998 18.0044L16.4451 18.8364L16.9998 18.0044L6.3352 10.8946L16.8258 3.9009C17.208 3.64611 17.5321 3.21048 17.5321 2.64697C17.5321 2.08346 17.208 1.64783 16.8258 1.39305C16.4533 1.14471 16.0195 1.05107 15.6383 1.05107C15.2571 1.05107 14.8234 1.14469 14.4509 1.39294C14.4509 1.39297 14.4508 1.39301 14.4508 1.39305L2.07417 9.6406L2.07401 9.6407C1.69183 9.89549 1.36768 10.3311 1.36768 10.8946C1.36768 11.4581 1.69183 11.8938 2.07401 12.1486L14.6195 20.5122C14.9981 20.7646 15.4295 20.856 15.8123 20.856C16.1955 20.856 16.6305 20.7585 16.9998 20.5122C17.382 20.2574 17.7062 19.8218 17.7062 19.2583C17.7062 18.6948 17.382 18.2592 16.9998 18.0044Z" fill="#CCCCCC" stroke="#CCCCCC" stroke-width="2"/>
</svg>
