<svg width="27" height="22" viewBox="0 0 27 22" fill="none" xmlns="http://www.w3.org/2000/svg">
<path d="M6.00018 18.0044L6.55488 18.8364L6.00018 18.0044L16.6648 10.8946L6.17421 3.9009C5.79203 3.64611 5.46787 3.21048 5.46787 2.64697C5.46787 2.08346 5.79203 1.64783 6.17421 1.39305C6.54671 1.14471 6.98047 1.05107 7.36172 1.05107C7.74292 1.05107 8.17661 1.14469 8.54907 1.39294C8.54912 1.39297 8.54918 1.39301 8.54923 1.39305L20.9258 9.6406L20.926 9.6407C21.3082 9.89549 21.6323 10.3311 21.6323 10.8946C21.6323 11.4581 21.3082 11.8938 20.926 12.1486L8.38048 20.5122C8.00193 20.7646 7.57046 20.856 7.18772 20.856C6.80451 20.856 6.36954 20.7585 6.00018 20.5122C5.618 20.2574 5.29385 19.8218 5.29385 19.2583C5.29385 18.6948 5.618 18.2592 6.00018 18.0044Z" fill="#CCCCCC" stroke="#CCCCCC" stroke-width="2"/>
</svg>
